# Blender v2.76 (sub 11) OBJ File: 'cube.blend'
# www.blender.org
mtllib cube.mtl
o Cube_Cube.002
v 3.514330 4.178349 -0.743927
v 3.514330 6.178349 -0.743927
v 3.514330 4.178349 -2.743927
v 3.514330 6.178349 -2.743927
v 5.514330 4.178349 -0.743927
v 5.514330 6.178349 -0.743927
v 5.514330 4.178349 -2.743927
v 5.514330 6.178349 -2.743927
vn -1.000000 0.000000 0.000000
vn 0.000000 0.000000 -1.000000
vn 1.000000 0.000000 0.000000
vn 0.000000 0.000000 1.000000
vn 0.000000 -1.000000 0.000000
vn 0.000000 1.000000 0.000000
usemtl None
s off
f 2//1 4//1 3//1
f 4//2 8//2 7//2
f 8//3 6//3 5//3
f 6//4 2//4 1//4
f 1//5 3//5 7//5
f 6//6 8//6 4//6
